<svg xmlns="http://www.w3.org/2000/svg" viewBox="0 0 64 64" fill="none">
  <defs>
    <linearGradient id="fv" x1="0" y1="0" x2="1" y2="1">
      <stop offset="0%" stop-color="#A3E635"/>
      <stop offset="100%" stop-color="#3B82F6"/>
    </linearGradient>
  </defs>
  <rect width="64" height="64" rx="12" fill="#0A1330"/>
  <path d="M48 22.5C45.3 18.5 40.7 16 35.5 16 26.9 16 20 22.9 20 31.5S26.9 47 35.5 47c5.2 0 9.8-2.5 12.5-6.5V35H34v3h11v1.2C42.8 42 39.4 44 35.5 44 28.6 44 23 38.4 23 31.5S28.6 19 35.5 19c4.5 0 8.4 2.2 10.6 5.5L48 22.5Z" fill="#F5F2E8"/>
  <circle cx="48" cy="48" r="7" fill="url(#fv)"/>
</svg>
